Coordinates
version=1
nRows=6
nColumns=46
inDegrees=yes

Units are S.I. units (second, meters, Newtons, ...)
Angles are in degrees.

endheader
time	pelvis_tilt	pelvis_list	pelvis_rotation	pelvis_tx	pelvis_ty	pelvis_tz	bb_angle	bb_tx	bb_ty	bb_tz	hip_flexion_r	hip_adduction_r	hip_rotation_r	knee_angle_r	knee_angle_r_beta	ankle_angle_r	subtalar_angle_r	mtp_angle_r	crank_angle_r	hip_flexion_l	hip_adduction_l	hip_rotation_l	knee_angle_l	knee_angle_l_beta	ankle_angle_l	subtalar_angle_l	mtp_angle_l	crank_angle_l	lumbar_extension	lumbar_bending	lumbar_rotation	arm_flex_r	arm_add_r	arm_rot_r	elbow_flex_r	pro_sup_r	wrist_flex_r	wrist_dev_r	arm_flex_l	arm_add_l	arm_rot_l	elbow_flex_l	pro_sup_l	wrist_flex_l	wrist_dev_l
      7.50000000	    -18.19680662	     -7.31327588	     -4.75787459	      0.06448471	      1.11284419	     -0.28071999	      0.00000000	      0.50000000	      0.00000000	      0.25000000	     88.12542073	      6.77900478	      1.84362441	     98.30172598	      1.71568878	      8.52305597	    -13.30777070	      0.00000000	      0.00000000	     52.32343936	    -12.23105171	      4.26433316	     56.12826502	      0.97962303	    -23.79915074	    -12.86313433	      0.00000000	      0.00000000	    -68.47613026	      3.78578905	      5.65552147	     89.68377856	    -24.10021028	     28.35231244	     86.65868005	     38.85015254	      0.00000000	      0.00000000	     89.37855795	    -50.80428635	     45.04873728	     97.30363394	     39.49650869	      0.00000000	      0.00000000
      7.50500000	    -18.05434576	     -7.21460779	     -5.01990126	      0.06423316	      1.11261204	     -0.28069813	      0.00000000	      0.50000000	      0.00000000	      0.25000000	     86.74715443	      6.93735153	      1.77909735	     95.96493563	      1.67490409	      9.82554201	    -13.83529279	      0.00000000	      0.00000000	     53.31413686	    -12.04693814	      4.84417147	     58.75632669	      1.02549136	    -24.72397691	    -13.40347497	      0.00000000	      0.00000000	    -68.52114987	      3.61387540	      5.57669388	     89.68579874	    -23.62770442	     28.36037744	     86.49738861	     38.60394215	      0.00000000	      0.00000000	     89.37129945	    -51.02686757	     45.21653904	     97.21070296	     39.42027576	      0.00000000	      0.00000000
      7.51000000	    -17.92630574	     -7.05382812	     -5.26910369	      0.06405629	      1.11216405	     -0.28062707	      0.00000000	      0.50000000	      0.00000000	      0.25000000	     85.37702593	      7.03069304	      1.75153205	     93.54309891	      1.63263507	     10.88529640	    -14.09347940	      0.00000000	      0.00000000	     54.32013950	    -11.78853022	      5.39563368	     61.35355907	      1.07082161	    -25.58846677	    -13.82312109	      0.00000000	      0.00000000	    -68.51203942	      3.47351121	      4.73867537	     89.69194575	    -21.93775280	     28.25629032	     85.81496024	     36.81549408	      0.00000000	      0.00000000	     89.34861124	    -52.44812942	     45.50040203	     97.78957826	     39.00836637	      0.00000000	      0.00000000
      7.51500000	    -17.70274809	     -6.57111806	     -5.49413973	      0.06389865	      1.11157470	     -0.28057952	      0.00000000	      0.50000000	      0.00000000	      0.25000000	     83.97394360	      6.98016444	      2.02770871	     91.17990248	      1.59138951	     11.73603554	    -14.23160996	      0.00000000	      0.00000000	     55.16599298	    -11.24566059	      5.74688987	     63.88192831	      1.11494998	    -26.33435866	    -13.95173893	      0.00000000	      0.00000000	    -68.52640644	      3.01259232	      4.31835518	     89.68723108	    -21.89220702	     28.26586627	     85.85166694	     36.77503455	      0.00000000	      0.00000000	     89.35987010	    -52.34578126	     45.58961927	     97.71563680	     38.98508280	      0.00000000	      0.00000000
      7.52000000	    -17.53955583	     -6.60916834	     -5.78251464	      0.06383163	      1.11087967	     -0.28073173	      0.00000000	      0.50000000	      0.00000000	      0.25000000	     82.50124815	      7.06902313	      1.73260538	     88.54073682	      1.54532738	     12.30600090	    -14.37792510	      0.00000000	      0.00000000	     56.21239947	    -11.14969530	      6.31290043	     66.49055396	      1.16047909	    -27.20364286	    -14.52732545	      0.00000000	      0.00000000	    -68.51696474	      2.90719461	      4.44925882	     89.69282383	    -21.53747235	     28.40303316	     85.61810129	     36.61261253	      0.00000000	      0.00000000	     89.33944477	    -52.45676028	     45.80155776	     97.49861546	     38.91815802	      0.00000000	      0.00000000
      7.52500000	    -17.26206008	     -6.01452679	     -5.94026251	      0.06383987	      1.11014487	     -0.28106576	      0.00000000	      0.50000000	      0.00000000	      0.25000000	     81.07686044	      6.81573133	      2.09063967	     86.12161251	      1.50310570	     12.50334473	    -14.37052064	      0.00000000	      0.00000000	     56.98887766	    -10.44933890	      6.50886157	     68.88927468	      1.20234466	    -27.88775467	    -14.47038894	      0.00000000	      0.00000000	    -68.53457057	      2.50018508	      3.96172121	     89.68632572	    -21.52787892	     28.38489296	     85.60329751	     36.58178519	      0.00000000	      0.00000000	     89.32693693	    -52.32275262	     45.91915825	     97.45566096	     38.91012949	      0.00000000	      0.00000000
